HIERARCHY
ROOT Hips
{
	OFFSET -0.179506 -22.333345 2.821913
	CHANNELS 6 Xposition Yposition Zposition Zrotation Yrotation Xrotation 
	JOINT LeftUpLeg
	{
		OFFSET 6.951974 -9.140623 -0.681533
		CHANNELS 3 Zrotation Yrotation Xrotation
		JOINT LeftLeg
		{
			OFFSET 3.427654 -37.519855 -0.449580
			CHANNELS 3 Zrotation Yrotation Xrotation
			JOINT LeftFoot
			{
				OFFSET -1.359570 -39.796059 -4.369333
				CHANNELS 3 Zrotation Yrotation Xrotation
				JOINT LeftToe
				{
					OFFSET 2.635814 -5.579078 11.928840
					CHANNELS 3 Zrotation Yrotation Xrotation
					End Site
					{
						OFFSET 0.000000 0.000000 0.000000
					}
				}
			}
		}
	}
	JOINT RightUpLeg
	{
		OFFSET -6.767048 -9.052170 -0.431982
		CHANNELS 3 Zrotation Yrotation Xrotation
		JOINT RightLeg
		{
			OFFSET -3.829005 -38.256897 -0.885003
			CHANNELS 3 Zrotation Yrotation Xrotation
			JOINT RightFoot
			{
				OFFSET 1.577377 -39.841461 -4.231180
				CHANNELS 3 Zrotation Yrotation Xrotation
				JOINT RightToe
				{
					OFFSET -2.537174 -4.814398 12.334795
					CHANNELS 3 Zrotation Yrotation Xrotation
					End Site
					{
						OFFSET 0.000000 0.000000 0.000000
					}
				}
			}
		}
	}
	JOINT Spine
	{
		OFFSET -0.253288 10.896323 -2.669631
		CHANNELS 3 Zrotation Yrotation Xrotation
		JOINT Spine1
		{
			OFFSET 0.548704 13.518043 0.109247
			CHANNELS 3 Zrotation Yrotation Xrotation
			JOINT Spine2
			{
				OFFSET 0.145701 5.292222 2.542457
				CHANNELS 3 Zrotation Yrotation Xrotation
				JOINT Neck
				{
					OFFSET -0.277840 21.387037 -4.285703
					CHANNELS 3 Zrotation Yrotation Xrotation
					JOINT Head
					{
						OFFSET 0.515184 6.496960 5.134897
						CHANNELS 3 Zrotation Yrotation Xrotation
						End Site
						{
							OFFSET 0.000000 0.000000 0.000000
						}
					}
				}
				JOINT LeftShoulder
				{
					OFFSET 7.884473 12.174932 -3.408961
					CHANNELS 3 Zrotation Yrotation Xrotation
					JOINT LeftArm
					{
						OFFSET 9.097692 3.046888 -0.886815
						CHANNELS 3 Zrotation Yrotation Xrotation
						JOINT LeftForeArm
						{
							OFFSET 25.961220 -1.277207 -2.745643
							CHANNELS 3 Zrotation Yrotation Xrotation
							JOINT LeftHand
							{
								OFFSET 24.923361 0.898606 -0.117091
								CHANNELS 3 Zrotation Yrotation Xrotation
								End Site
								{
									OFFSET 0.000000 0.000000 0.000000
								}
							}
						}
					}
				}
				JOINT RightShoulder
				{
					OFFSET -8.175920 11.883285 -3.861528
					CHANNELS 3 Zrotation Yrotation Xrotation
					JOINT RightArm
					{
						OFFSET -9.601238 3.255117 -0.914307
						CHANNELS 3 Zrotation Yrotation Xrotation
						JOINT RightForeArm
						{
							OFFSET -25.374195 -1.332924 -2.140099
							CHANNELS 3 Zrotation Yrotation Xrotation
							JOINT RightHand
							{
								OFFSET -25.529810 0.777228 -0.555919
								CHANNELS 3 Zrotation Yrotation Xrotation
								End Site
								{
									OFFSET 0.000000 0.000000 0.000000
								}
							}
						}
					}
				}
			}
		}
	}
}
MOTION
Frames: 6
Frame Time: 0.033333
201.665482 208.095810 96.695793 -46.813686 -1.207259 86.278113 -0.451255 -0.102998 4.029627 -1.327364 -3.918727 -1.323586 3.042897 11.584944 -4.264085 nan nan nan -2.806515 -2.108413 6.655765 4.216534 1.349369 -3.293451 6.234123 -3.332754 1.455446 nan nan nan -1.922249 2.901243 -4.122996 4.063385 -4.918510 11.899759 -0.819034 -0.061743 -1.965064 -5.357206 -2.128107 8.370439 1.411990 1.871145 0.504140 -27.297965 4.308819 4.436719 -56.756222 -0.610962 21.401888 4.423432 -67.012551 0.956888 7.950719 -17.558530 -26.100300 25.504908 -0.813395 2.278108 59.058337 -2.326609 12.846050 -32.738682 73.743740 -41.262371 -8.636746 13.217616 -42.362789 
201.657990 208.082382 96.663155 -46.863018 -1.208121 86.504554 -0.485366 -0.218463 3.806998 -1.276353 -3.908350 -1.300454 3.044115 11.701808 -4.329398 nan nan nan -2.805223 -2.007623 6.353843 4.237517 1.302416 -3.182126 6.363200 -3.394977 1.307062 nan nan nan -1.867184 2.865826 -4.459908 3.936133 -4.867214 11.768352 -0.770768 -0.005198 -1.690094 -5.333797 -1.971969 8.132569 1.456039 2.121739 0.677081 -27.211175 4.343007 4.340746 -56.846964 -0.575495 21.409641 4.233932 -66.992171 1.374623 7.880729 -17.517195 -26.015529 25.480281 -0.846611 2.325461 59.122559 -2.224529 12.796871 -32.597309 73.714210 -41.058202 -8.506523 13.307253 -42.341946 
201.679596 208.021805 96.595428 -46.628628 -1.202502 86.484778 -0.073741 -0.390106 3.911091 -2.097004 -3.825838 -1.435444 3.023115 11.460399 -4.225789 nan nan nan -2.959770 -1.831851 6.591305 4.461279 0.765127 -3.501920 6.524237 -3.098670 1.295637 nan nan nan -1.971778 2.794496 -4.018961 4.047993 -4.968065 10.144645 -0.455211 0.068647 -0.785427 -5.867390 -2.674594 9.463687 2.871185 2.370651 0.217061 -26.660583 4.001694 4.766092 -58.603249 -0.132979 20.978803 15.083828 -67.846075 -16.440120 17.353648 -20.184501 -46.792435 24.625671 -0.555147 2.340757 59.749758 -2.592277 12.801671 -30.860817 74.334034 -39.622260 -14.332038 12.409746 -46.597728 
201.673218 208.038284 96.575279 -46.538315 -1.200911 86.519499 -0.056873 -0.519570 3.866532 -2.134345 -3.692677 -1.424632 3.012054 11.386106 -4.118614 nan nan nan -2.976068 -1.868395 6.548820 4.476455 0.590949 -3.512165 6.600818 -2.961289 1.286207 nan nan nan -1.958809 2.772269 -4.021388 4.008371 -5.025255 10.120095 -0.444341 0.076826 -0.897830 -6.015162 -2.651852 9.599508 3.066966 2.444739 0.338936 -26.700564 3.978189 4.980576 -58.636307 -0.250359 20.725334 14.768818 -67.672191 -16.323432 16.754049 -21.139076 -46.833360 24.699522 -0.624252 2.644480 59.705504 -2.185370 12.166462 -28.960413 73.894131 -37.472365 -13.079735 13.544497 -45.288196 
201.665314 208.058823 96.553497 -46.489408 -1.187189 86.556738 -0.035401 -0.561534 3.806498 -2.117861 -3.652982 -1.392975 2.999999 11.319811 -4.088218 nan nan nan -2.961892 -1.871806 6.501276 4.475953 0.538032 -3.510307 6.583533 -2.908290 1.294429 nan nan nan -1.925621 2.746255 -4.027120 3.981778 -5.040889 10.058800 -0.464628 0.083369 -0.879817 -5.982103 -2.592874 9.632652 3.087255 2.369869 0.317173 -26.706426 3.946035 5.013094 -58.673503 -0.296888 20.627746 14.696709 -67.519889 -16.387957 16.445107 -21.481699 -46.623720 24.674915 -0.601260 2.736389 59.835569 -2.147290 11.990921 -28.568049 73.889376 -36.823906 -12.652791 13.828338 -44.535078 
201.665955 208.070007 96.538834 -46.443804 -1.192441 86.591941 -0.039618 -0.595056 3.758417 -2.124215 -3.711532 -1.387798 3.040927 11.264083 -4.076850 nan nan nan -2.995627 -1.882220 6.473602 4.510728 0.505891 -3.520255 6.569041 -2.882735 1.322085 nan nan nan -1.894726 2.706034 -4.012862 3.945462 -5.047468 9.972303 -0.513125 0.099979 -0.805672 -5.834922 -2.488022 9.527046 3.098475 2.396656 0.360892 -26.664420 4.011792 4.985772 -58.724362 -0.397712 20.590759 14.562546 -67.442992 -16.381944 16.102269 -21.550217 -46.375174 24.615532 -0.689167 2.734399 60.039501 -2.110053 11.989504 -27.898454 73.921498 -35.828558 -12.231356 13.736836 -43.564517 
